<?xml version="1.0" encoding="utf-8"?>
<!-- Generator: Adobe Illustrator 21.0.2, SVG Export Plug-In . SVG Version: 6.00 Build 0)  -->
<svg version="1.1" id="Layer_1" xmlns="http://www.w3.org/2000/svg">

    <symbol id="svgbattery" viewBox="0 0 100 100">
        <path d="M89.9,44v13.3c0,2.5-2,4.4-4.4,4.4v5.5c0,3-2.5,5.5-5.5,5.5H15.6c-3,0-5.5-2.5-5.5-5.5V34.1c0-3,2.5-5.5,5.5-5.5h64.3
      c3,0,5.5,2.5,5.5,5.5v5.5C88,39.6,89.9,41.6,89.9,44z M85.5,44h-4.4v-10c0-0.6-0.5-1.1-1.1-1.1H15.6c-0.6,0-1.1,0.5-1.1,1.1v33.3
      c0,0.6,0.5,1.1,1.1,1.1h64.3c0.6,0,1.1-0.5,1.1-1.1v-10h4.4V44z M19,37.4h31V64H19V37.4z"/>
    </symbol>

    <symbol id="svgheart" viewBox="0 0 100 100">
        <path d="M79.1,57.4L51.9,83.6c-0.5,0.5-1.2,0.8-1.9,0.8s-1.4-0.3-1.9-0.8L20.9,57.3C20.5,57,11,48.3,11,37.8
      c0-12.8,7.8-20.4,20.8-20.4c7.6,0,14.8,6,18.2,9.4c3.4-3.4,10.6-9.4,18.2-9.4c13,0,20.8,7.6,20.8,20.4C89,48.3,79.5,57,79.1,57.4z
       M68.2,23c-6.5,0-13.8,7-16.1,9.7c-1,1.3-3.2,1.3-4.3,0C45.6,30,38.3,23,31.8,23c-7,0-15.3,2.6-15.3,14.8c0,8,8.1,15.4,8.1,15.5
      L50,77.7l25.3-24.4c0.1-0.1,8.2-7.5,8.2-15.5C83.5,25.6,75.2,23,68.2,23z"/>
    </symbol>

    <symbol id="svgarrow" viewBox="0 0 100 100">
        <path d="M50,84.2c-18.4,0-33.4-14.9-33.4-33.4S31.6,17.5,50,17.5c18.4,0,33.4,14.9,33.4,33.4S68.4,84.2,50,84.2z M71.7,57
      c1.1-1.1,1.1-2.8,0-3.9L52,33.4c-1.1-1.1-2.8-1.1-3.9,0L28.3,53.1c-1.1,1.1-1.1,2.8,0,3.9l4.4,4.4c1.1,1.1,2.8,1.1,3.9,0L50,48.1
      l13.3,13.3c1.1,1.1,2.8,1.1,3.9,0L71.7,57z"/>
    </symbol>

</svg>